<?xml version="1.0" encoding="UTF-8"?>
<svg width="256px" height="256px" viewBox="0 0 256 256" version="1.1" xmlns="http://www.w3.org/2000/svg" xmlns:xlink="http://www.w3.org/1999/xlink">
    <title>favicon</title>
    <g id="favicon" stroke="none" stroke-width="1" fill="none" fill-rule="evenodd">
        <circle id="Oval" stroke="#131313" stroke-width="10" fill="#FFFFFF" cx="128" cy="128" r="120"></circle>
        <path d="M196.727273,97.8938548 C185.575758,93.5195531 172.242424,90.3603352 157.454546,88.6592179 L157.454546,79.1815643 C157.454546,65.8156425 163.515152,58.0391062 177.575758,52.6927374 L173.69697,42 C155.272727,48.8044693 146.30303,60.9553073 146.30303,79.1815643 L146.30303,87.6871509 C140.484849,87.2011174 134.181818,86.9581006 128.121212,86.9581006 C122.060606,86.9581006 116,87.2011174 109.939394,87.6871509 L109.939394,79.1815643 C109.939394,65.8156425 116,58.0391062 130.060606,52.6927374 L126.181818,42 C107.515152,48.8044693 98.5454548,60.9553073 98.5454548,79.1815643 L98.5454548,88.6592179 C84,90.3603352 70.6666667,93.5195531 59.2727273,97.8938548 C39.1515152,105.670391 28,116.849162 28,129 C28,141.150838 39.1515152,152.329609 59.2727273,160.106145 C70.4242425,164.480447 83.7575758,167.639665 98.5454548,169.340782 L98.5454548,178.818436 C98.5454548,192.184358 92.4848485,199.960894 78.4242427,205.307263 L82.3030305,216 C100.727273,209.195531 109.939394,197.044693 109.939394,178.818436 L109.939394,170.312849 C115.757576,170.798883 122.060606,171.0419 128.121212,171.0419 C134.181818,171.0419 140.242424,170.798883 146.30303,170.312849 L146.30303,178.818436 C146.30303,192.184358 140.242424,199.960894 126.181818,205.307263 L130.060606,216 C148.484849,209.195531 157.454546,197.044693 157.454546,178.818436 L157.454546,169.340782 C172,167.639665 185.333333,164.480447 196.727273,160.106145 C216.848485,152.329609 228,141.393855 228,129 C228,116.606145 216.848485,105.670391 196.727273,97.8938548 Z M98.5454548,157.918995 C85.4545456,156.217877 73.5757576,153.301676 63.3939394,149.413408 C48.3636364,143.581006 39.3939394,136.047486 39.3939394,129 C39.3939394,121.952514 48.3636364,114.418994 63.3939394,108.586592 C73.3333333,104.698324 85.4545456,101.782123 98.5454548,100.081006 L98.5454548,157.918995 Z M146.30303,158.891062 C140.484849,159.377095 134.424242,159.620112 128.121212,159.620112 C122.060606,159.620112 115.757576,159.377095 109.939394,158.891062 L109.939394,99.1089384 C115.757576,98.6229051 121.818182,98.3798885 128.121212,98.3798885 C134.181818,98.3798885 140.484849,98.6229051 146.30303,99.1089384 L146.30303,158.891062 Z M192.606061,149.413408 C182.666667,153.301676 170.545454,156.217877 157.454546,157.918995 L157.454546,100.081006 C170.545454,101.782123 182.424243,104.698324 192.606061,108.586592 C207.636364,114.418994 216.606061,121.952514 216.606061,129 C216.606061,136.047486 207.636364,143.581006 192.606061,149.413408 Z" id="Shape" fill="#131313" fill-rule="nonzero"></path>
    </g>
</svg>