<?xml version="1.0" encoding="UTF-8"?>
<svg width="110px" height="32px" viewBox="0 0 110 32" version="1.1" xmlns="http://www.w3.org/2000/svg" xmlns:xlink="http://www.w3.org/1999/xlink">
    <title>LOGO</title>
    <g id="logo" stroke="none" stroke-width="1" fill="none" fill-rule="evenodd">
        <path d="M6.332,25.712 L7.732,21.736 L15.88,21.736 L17.28,25.712 L20.64,25.712 L13.668,6.224 L9.972,6.224 L3,25.712 L6.332,25.712 Z M14.984,19.132 L8.628,19.132 L11.82,10.088 L14.984,19.132 Z M26.856,25.712 L26.856,17.928 L29.292,17.928 L33.772,25.712 L37.58,25.712 L32.764,17.648 C36.04,16.836 37.272,14.372 37.272,12.076 C37.272,8.912 35.004,6.252 30.384,6.252 L23.664,6.252 L23.664,25.712 L26.856,25.712 Z M30.384,15.38 L26.856,15.38 L26.856,8.856 L30.384,8.856 C32.876,8.856 33.996,10.116 33.996,12.076 C33.996,14.008 32.876,15.38 30.384,15.38 Z M44.552,25.712 L44.552,6.252 L41.36,6.252 L41.36,25.712 L44.552,25.712 Z M55.164,25.908 C59.504,25.908 61.884,23.108 61.884,20.196 C61.884,13.084 51.58,15.828 51.58,11.432 C51.58,9.556 53.008,8.66 54.856,8.716 C56.872,8.772 58.02,9.976 58.132,11.292 L61.66,11.292 C61.38,7.96 58.748,6 55.024,6 C51.048,6 48.332,8.128 48.332,11.544 C48.332,18.712 58.664,15.66 58.664,20.364 C58.664,22.016 57.404,23.22 55.164,23.22 C52.952,23.22 51.832,21.932 51.692,20.336 L48.276,20.336 C48.276,23.78 51.272,25.908 55.164,25.908 Z M68.856,25.712 L68.856,6.252 L65.664,6.252 L65.664,25.712 L68.856,25.712 Z M76.248,25.712 L76.248,17.928 L78.684,17.928 L83.164,25.712 L86.972,25.712 L82.156,17.648 C85.432,16.836 86.664,14.372 86.664,12.076 C86.664,8.912 84.396,6.252 79.776,6.252 L73.056,6.252 L73.056,25.712 L76.248,25.712 Z M79.776,15.38 L76.248,15.38 L76.248,8.856 L79.776,8.856 C82.268,8.856 83.388,10.116 83.388,12.076 C83.388,14.008 82.268,15.38 79.776,15.38 Z M92.936,25.712 L94.336,21.736 L102.484,21.736 L103.884,25.712 L107.244,25.712 L100.272,6.224 L96.576,6.224 L89.604,25.712 L92.936,25.712 Z M101.588,19.132 L95.232,19.132 L98.424,10.088 L101.588,19.132 Z" id="ARISIRA" fill="#131415" fill-rule="nonzero"></path>
    </g>
</svg>