<?xml version="1.0" encoding="UTF-8"?>
<svg width="110px" height="32px" viewBox="0 0 110 32" version="1.1" xmlns="http://www.w3.org/2000/svg" xmlns:xlink="http://www.w3.org/1999/xlink">
    <title>logo</title>
    <g id="logo" stroke="none" stroke-width="1" fill="none" fill-rule="evenodd">
        <path d="M28.0913489,11.2786869 C26.2347368,10.5525288 24.0148744,10.0280813 21.5528453,9.74568646 L21.5528453,8.1723439 C21.5528453,5.95352747 22.5618736,4.66257972 24.9028194,3.77505314 L24.2570412,2 C21.189595,3.12957928 19.6962331,5.14668512 19.6962331,8.1723439 L19.6962331,9.58431799 C18.727566,9.50363376 17.6781764,9.46329164 16.6691481,9.46329164 C15.6601197,9.46329164 14.6510914,9.50363376 13.6420631,9.58431799 L13.6420631,8.1723439 C13.6420631,5.95352747 14.6510914,4.66257972 16.9920372,3.77505314 L16.346259,2 C13.2384518,3.12957928 11.7450899,5.14668512 11.7450899,8.1723439 L11.7450899,9.74568646 C9.32342186,10.0280813 7.10355949,10.5525288 5.20658622,11.2786869 C1.85661214,12.5696347 0,14.4253721 0,16.4424779 C0,18.4595838 1.85661214,20.3153211 5.20658622,21.6062688 C7.06319836,22.3324269 9.2830607,22.8568745 11.7450899,23.1392693 L11.7450899,24.7126119 C11.7450899,26.9314283 10.7360615,28.222376 8.3951158,29.1099026 L9.04089392,30.8849557 C12.10834,29.7553764 13.6420631,27.7382707 13.6420631,24.7126119 L13.6420631,23.3006378 C14.6107303,23.381322 15.6601197,23.4216641 16.6691481,23.4216641 C17.6781764,23.4216641 18.6872048,23.381322 19.6962331,23.3006378 L19.6962331,24.7126119 C19.6962331,26.9314283 18.6872048,28.222376 16.346259,29.1099026 L16.9920372,30.8849557 C20.0594833,29.7553764 21.5528453,27.7382707 21.5528453,24.7126119 L21.5528453,23.1392693 C23.9745133,22.8568745 26.1943756,22.3324269 28.0913489,21.6062688 C31.441323,20.3153211 33.2979351,18.4999259 33.2979351,16.4424779 C33.2979351,14.3850299 31.441323,12.5696347 28.0913489,11.2786869 Z M11.7450899,21.2431898 C9.56558864,20.960795 7.58789309,20.4766895 5.89272549,19.8312157 C3.39033521,18.8630049 1.89697327,17.6123993 1.89697327,16.4424779 C1.89697327,15.2725565 3.39033521,14.0219509 5.89272549,13.05374 C7.54753195,12.4082662 9.56558864,11.9241607 11.7450899,11.641766 L11.7450899,21.2431898 Z M19.6962331,21.4045583 C18.727566,21.4852425 17.7185376,21.5255846 16.6691481,21.5255846 C15.6601197,21.5255846 14.6107303,21.4852425 13.6420631,21.4045583 L13.6420631,11.4803975 C14.6107303,11.3997133 15.6197587,11.3593712 16.6691481,11.3593712 C17.6781764,11.3593712 18.727566,11.3997133 19.6962331,11.4803975 L19.6962331,21.4045583 Z M27.4052096,19.8312157 C25.7504031,20.4766895 23.7323464,20.960795 21.5528453,21.2431898 L21.5528453,11.641766 C23.7323464,11.9241607 25.710042,12.4082662 27.4052096,13.05374 C29.9075999,14.0219509 31.4009618,15.2725565 31.4009618,16.4424779 C31.4009618,17.6123993 29.9075999,18.8630049 27.4052096,19.8312157 Z" id="Shape" fill="#131313" fill-rule="nonzero"></path>
        <path d="M37.665,15 L37.665,8.214 L43.125,15 L44.191,15 L44.191,5.9 L42.891,5.9 L42.891,12.686 L37.431,5.9 L36.365,5.9 L36.365,15 L37.665,15 Z M49.807,15.078 C50.951,15.078 51.9,14.688 52.524,13.96 L51.835,13.154 C51.328,13.713 50.652,13.986 49.846,13.986 C48.481,13.986 47.506,13.18 47.35,11.971 L52.94,11.971 C52.953,11.854 52.966,11.698 52.966,11.594 C52.966,9.475 51.549,8.045 49.56,8.045 C47.571,8.045 46.102,9.514 46.102,11.555 C46.102,13.609 47.584,15.078 49.807,15.078 Z M51.77,11.074 L47.35,11.074 C47.48,9.904 48.364,9.098 49.56,9.098 C50.769,9.098 51.64,9.917 51.77,11.074 Z M57.217,15 L59.232,9.774 L61.221,15 L62.417,15 L64.991,8.11 L63.873,8.11 L61.819,13.622 L59.778,8.11 L58.725,8.11 L56.645,13.596 L54.643,8.11 L53.46,8.11 L56.021,15 L57.217,15 Z M70.776,15 C73.077,15 74.26,14.103 74.26,12.543 C74.26,11.334 73.584,10.567 72.557,10.281 C73.272,9.93 73.779,9.241 73.779,8.253 C73.779,6.784 72.609,5.9 70.516,5.9 L66.434,5.9 L66.434,15 L70.776,15 Z M70.399,9.865 L67.734,9.865 L67.734,6.953 L70.399,6.953 C71.725,6.953 72.479,7.447 72.479,8.409 C72.479,9.371 71.725,9.865 70.399,9.865 Z M70.724,13.947 L67.734,13.947 L67.734,10.918 L70.724,10.918 C72.167,10.918 72.947,11.386 72.947,12.439 C72.947,13.492 72.167,13.947 70.724,13.947 Z M77.341,15 L77.341,11.568 C77.341,10.06 78.173,9.241 79.512,9.241 C79.603,9.241 79.694,9.241 79.798,9.254 L79.798,8.045 C78.589,8.045 77.731,8.461 77.289,9.267 L77.289,8.11 L76.093,8.11 L76.093,15 L77.341,15 Z M81.956,6.784 C82.45,6.784 82.801,6.42 82.801,5.952 C82.801,5.51 82.437,5.159 81.956,5.159 C81.475,5.159 81.111,5.523 81.111,5.978 C81.111,6.433 81.475,6.784 81.956,6.784 Z M82.58,15 L82.58,8.11 L81.332,8.11 L81.332,15 L82.58,15 Z M87.806,15.078 C88.82,15.078 89.704,14.688 90.263,13.908 L90.263,15 L91.459,15 L91.459,5.354 L90.211,5.354 L90.211,9.15 C89.639,8.409 88.781,8.045 87.806,8.045 C85.791,8.045 84.322,9.449 84.322,11.555 C84.322,13.661 85.791,15.078 87.806,15.078 Z M87.91,13.986 C86.584,13.986 85.583,13.024 85.583,11.555 C85.583,10.086 86.584,9.137 87.91,9.137 C89.223,9.137 90.224,10.086 90.224,11.555 C90.224,13.024 89.223,13.986 87.91,13.986 Z M96.841,17.6 C99.181,17.6 100.416,16.495 100.416,14.064 L100.416,8.11 L99.233,8.11 L99.233,9.176 C98.648,8.422 97.712,8.045 96.685,8.045 C94.696,8.045 93.188,9.384 93.188,11.373 C93.188,13.362 94.696,14.714 96.685,14.714 C97.673,14.714 98.57,14.363 99.168,13.648 L99.168,14.194 C99.168,15.754 98.427,16.508 96.802,16.508 C95.788,16.508 94.787,16.157 94.15,15.611 L93.552,16.573 C94.306,17.249 95.58,17.6 96.841,17.6 Z M96.828,13.622 C95.437,13.622 94.449,12.699 94.449,11.373 C94.449,10.034 95.437,9.137 96.828,9.137 C98.206,9.137 99.194,10.034 99.194,11.373 C99.194,12.699 98.206,13.622 96.828,13.622 Z M105.863,15.078 C107.007,15.078 107.956,14.688 108.58,13.96 L107.891,13.154 C107.384,13.713 106.708,13.986 105.902,13.986 C104.537,13.986 103.562,13.18 103.406,11.971 L108.996,11.971 C109.009,11.854 109.022,11.698 109.022,11.594 C109.022,9.475 107.605,8.045 105.616,8.045 C103.627,8.045 102.158,9.514 102.158,11.555 C102.158,13.609 103.64,15.078 105.863,15.078 Z M107.826,11.074 L103.406,11.074 C103.536,9.904 104.42,9.098 105.616,9.098 C106.825,9.098 107.696,9.917 107.826,11.074 Z" id="NewBridge" fill="#000000" fill-rule="nonzero"></path>
        <path d="M37.028,27 L37.028,23.386 C37.028,21.774 38.003,20.747 39.602,20.747 C40.98,20.747 41.799,21.553 41.799,23.087 L41.799,27 L42.449,27 L42.449,23.035 C42.449,21.137 41.344,20.162 39.693,20.162 C38.406,20.162 37.457,20.734 37.002,21.683 L37.002,20.214 L36.378,20.214 L36.378,27 L37.028,27 Z M47.896,27.052 C48.923,27.052 49.859,26.675 50.457,25.947 L50.08,25.518 C49.56,26.155 48.767,26.467 47.909,26.467 C46.284,26.467 45.101,25.375 45.036,23.763 L50.873,23.763 C50.873,23.698 50.886,23.633 50.886,23.581 C50.886,21.566 49.508,20.162 47.649,20.162 C45.79,20.162 44.399,21.592 44.399,23.607 C44.399,25.622 45.842,27.052 47.896,27.052 Z M50.249,23.256 L45.049,23.256 C45.153,21.774 46.206,20.734 47.649,20.734 C49.092,20.734 50.158,21.787 50.249,23.256 Z M54.877,27.052 C55.384,27.052 55.93,26.896 56.268,26.571 L55.995,26.116 C55.722,26.363 55.345,26.493 54.942,26.493 C54.11,26.493 53.681,26.012 53.681,25.141 L53.681,20.773 L55.839,20.773 L55.839,20.214 L53.681,20.214 L53.681,18.732 L53.031,18.732 L53.031,20.214 L51.783,20.214 L51.783,20.773 L53.031,20.773 L53.031,25.206 C53.031,26.35 53.681,27.052 54.877,27.052 Z M59.869,27 L62.17,21.111 L64.458,27 L65.069,27 L67.643,20.214 L67.045,20.214 L64.757,26.259 L62.456,20.214 L61.897,20.214 L59.583,26.272 L57.321,20.214 L56.697,20.214 L59.271,27 L59.869,27 Z M71.608,27.052 C73.558,27.052 75.001,25.622 75.001,23.607 C75.001,21.592 73.558,20.162 71.608,20.162 C69.658,20.162 68.215,21.592 68.215,23.607 C68.215,25.622 69.658,27.052 71.608,27.052 Z M71.608,26.467 C70.048,26.467 68.878,25.31 68.878,23.607 C68.878,21.904 70.048,20.747 71.608,20.747 C73.168,20.747 74.338,21.904 74.338,23.607 C74.338,25.31 73.168,26.467 71.608,26.467 Z M77.666,27 L77.666,23.464 C77.666,21.787 78.563,20.786 80.071,20.786 L80.227,20.799 L80.227,20.799 L80.227,20.162 C78.953,20.162 78.056,20.708 77.64,21.696 L77.64,20.214 L77.016,20.214 L77.016,27 L77.666,27 Z M82.671,27 L82.671,24.985 L84.439,23.373 L87.325,27 L88.131,27 L84.92,22.957 L87.845,20.214 L87.013,20.214 L82.671,24.179 L82.671,17.354 L82.021,17.354 L82.021,27 L82.671,27 Z" id="network" fill="#000000" fill-rule="nonzero"></path>
    </g>
</svg>